<mxfile host="app.diagrams.net" modified="2021-05-27T13:07:16.081Z" agent="5.0 (Windows NT 10.0; Win64; x64) AppleWebKit/537.36 (KHTML, like Gecko) Chrome/90.0.4430.212 Safari/537.36 Edg/90.0.818.66" etag="XOVWiqL546IzUW9NpU3q" version="14.7.1" type="github">
  <diagram id="R2lEEEUBdFMjLlhIrx00" name="Page-1">
    <mxGraphModel dx="1422" dy="762" grid="0" gridSize="10" guides="1" tooltips="1" connect="1" arrows="1" fold="1" page="1" pageScale="1" pageWidth="850" pageHeight="1100" background="#FFFFFF" math="0" shadow="0" extFonts="Permanent Marker^https://fonts.googleapis.com/css?family=Permanent+Marker">
      <root>
        <mxCell id="0" />
        <mxCell id="1" parent="0" />
        <mxCell id="5sg7_J7ixAqYXWb-klfq-3" style="edgeStyle=orthogonalEdgeStyle;rounded=0;orthogonalLoop=1;jettySize=auto;html=1;entryX=0.5;entryY=0;entryDx=0;entryDy=0;align=center;" edge="1" parent="1" source="5sg7_J7ixAqYXWb-klfq-2" target="5sg7_J7ixAqYXWb-klfq-4">
          <mxGeometry relative="1" as="geometry">
            <mxPoint x="385" y="140" as="targetPoint" />
          </mxGeometry>
        </mxCell>
        <mxCell id="5sg7_J7ixAqYXWb-klfq-2" value="&lt;font style=&quot;font-size: 14px&quot; face=&quot;Times New Roman&quot;&gt;开始&lt;/font&gt;" style="html=1;dashed=0;whitespace=wrap;shape=mxgraph.dfd.start;align=center;" vertex="1" parent="1">
          <mxGeometry x="310" y="50" width="140" height="50" as="geometry" />
        </mxCell>
        <mxCell id="5sg7_J7ixAqYXWb-klfq-6" style="edgeStyle=orthogonalEdgeStyle;rounded=0;orthogonalLoop=1;jettySize=auto;html=1;exitX=0.5;exitY=1;exitDx=0;exitDy=0;align=center;" edge="1" parent="1" source="5sg7_J7ixAqYXWb-klfq-4">
          <mxGeometry relative="1" as="geometry">
            <mxPoint x="380" y="240" as="targetPoint" />
          </mxGeometry>
        </mxCell>
        <mxCell id="5sg7_J7ixAqYXWb-klfq-4" value="&lt;font style=&quot;font-size: 14px&quot; face=&quot;Times New Roman&quot;&gt;点击攻略&lt;/font&gt;" style="html=1;dashed=0;whitespace=wrap;align=center;" vertex="1" parent="1">
          <mxGeometry x="330" y="150" width="100" height="50" as="geometry" />
        </mxCell>
        <mxCell id="5sg7_J7ixAqYXWb-klfq-8" style="edgeStyle=orthogonalEdgeStyle;rounded=0;orthogonalLoop=1;jettySize=auto;html=1;align=center;" edge="1" parent="1" source="5sg7_J7ixAqYXWb-klfq-5" target="5sg7_J7ixAqYXWb-klfq-9">
          <mxGeometry relative="1" as="geometry">
            <mxPoint x="380" y="390" as="targetPoint" />
          </mxGeometry>
        </mxCell>
        <mxCell id="5sg7_J7ixAqYXWb-klfq-29" value="是" style="edgeLabel;html=1;align=center;verticalAlign=middle;resizable=0;points=[];" vertex="1" connectable="0" parent="5sg7_J7ixAqYXWb-klfq-8">
          <mxGeometry x="-0.2587" relative="1" as="geometry">
            <mxPoint as="offset" />
          </mxGeometry>
        </mxCell>
        <mxCell id="5sg7_J7ixAqYXWb-klfq-30" value="&lt;font style=&quot;font-size: 14px&quot;&gt;是&lt;/font&gt;" style="edgeLabel;html=1;align=center;verticalAlign=middle;resizable=0;points=[];" vertex="1" connectable="0" parent="5sg7_J7ixAqYXWb-klfq-8">
          <mxGeometry x="-0.2345" relative="1" as="geometry">
            <mxPoint as="offset" />
          </mxGeometry>
        </mxCell>
        <mxCell id="5sg7_J7ixAqYXWb-klfq-10" value="&lt;span style=&quot;font-size: 14px&quot;&gt;否&lt;/span&gt;" style="edgeStyle=orthogonalEdgeStyle;rounded=0;orthogonalLoop=1;jettySize=auto;html=1;entryX=0;entryY=0.5;entryDx=0;entryDy=0;align=center;" edge="1" parent="1" source="5sg7_J7ixAqYXWb-klfq-5" target="5sg7_J7ixAqYXWb-klfq-11">
          <mxGeometry relative="1" as="geometry">
            <mxPoint x="600" y="280" as="targetPoint" />
          </mxGeometry>
        </mxCell>
        <mxCell id="5sg7_J7ixAqYXWb-klfq-5" value="&lt;font style=&quot;font-size: 14px&quot;&gt;判断是否已登录&lt;/font&gt;" style="shape=rhombus;html=1;dashed=0;whitespace=wrap;perimeter=rhombusPerimeter;align=center;" vertex="1" parent="1">
          <mxGeometry x="290" y="240" width="180" height="80" as="geometry" />
        </mxCell>
        <mxCell id="5sg7_J7ixAqYXWb-klfq-14" value="&lt;font style=&quot;font-size: 14px&quot;&gt;否&lt;/font&gt;" style="edgeStyle=orthogonalEdgeStyle;rounded=0;orthogonalLoop=1;jettySize=auto;html=1;exitX=1;exitY=0.5;exitDx=0;exitDy=0;entryX=0;entryY=0.5;entryDx=0;entryDy=0;align=center;" edge="1" parent="1" source="5sg7_J7ixAqYXWb-klfq-9" target="5sg7_J7ixAqYXWb-klfq-15">
          <mxGeometry relative="1" as="geometry">
            <mxPoint x="540" y="420" as="targetPoint" />
            <Array as="points" />
          </mxGeometry>
        </mxCell>
        <mxCell id="5sg7_J7ixAqYXWb-klfq-16" style="edgeStyle=orthogonalEdgeStyle;rounded=0;orthogonalLoop=1;jettySize=auto;html=1;align=center;" edge="1" parent="1" source="5sg7_J7ixAqYXWb-klfq-9">
          <mxGeometry relative="1" as="geometry">
            <mxPoint x="380" y="530" as="targetPoint" />
          </mxGeometry>
        </mxCell>
        <mxCell id="5sg7_J7ixAqYXWb-klfq-9" value="&lt;font style=&quot;font-size: 14px&quot;&gt;收藏按钮是否为红色&lt;/font&gt;" style="shape=rhombus;html=1;dashed=0;whitespace=wrap;perimeter=rhombusPerimeter;align=center;" vertex="1" parent="1">
          <mxGeometry x="287.5" y="380" width="185" height="70" as="geometry" />
        </mxCell>
        <mxCell id="5sg7_J7ixAqYXWb-klfq-12" style="edgeStyle=orthogonalEdgeStyle;rounded=0;orthogonalLoop=1;jettySize=auto;html=1;entryX=0.5;entryY=0;entryDx=0;entryDy=0;align=center;" edge="1" parent="1" source="5sg7_J7ixAqYXWb-klfq-11" target="5sg7_J7ixAqYXWb-klfq-13">
          <mxGeometry relative="1" as="geometry">
            <mxPoint x="650" y="380" as="targetPoint" />
            <Array as="points">
              <mxPoint x="710" y="360" />
              <mxPoint x="710" y="360" />
            </Array>
          </mxGeometry>
        </mxCell>
        <mxCell id="5sg7_J7ixAqYXWb-klfq-11" value="&lt;font style=&quot;font-size: 14px&quot;&gt;收藏失败&lt;/font&gt;" style="html=1;dashed=0;whitespace=wrap;align=center;" vertex="1" parent="1">
          <mxGeometry x="660" y="255" width="100" height="50" as="geometry" />
        </mxCell>
        <mxCell id="5sg7_J7ixAqYXWb-klfq-24" style="edgeStyle=orthogonalEdgeStyle;rounded=0;orthogonalLoop=1;jettySize=auto;html=1;entryX=0.5;entryY=0.5;entryDx=0;entryDy=25;entryPerimeter=0;align=center;" edge="1" parent="1" source="5sg7_J7ixAqYXWb-klfq-13" target="5sg7_J7ixAqYXWb-klfq-21">
          <mxGeometry relative="1" as="geometry">
            <Array as="points">
              <mxPoint x="710" y="720" />
              <mxPoint x="380" y="720" />
            </Array>
          </mxGeometry>
        </mxCell>
        <mxCell id="5sg7_J7ixAqYXWb-klfq-13" value="&lt;font style=&quot;font-size: 14px&quot;&gt;登录页面&lt;/font&gt;" style="html=1;dashed=0;whitespace=wrap;align=center;" vertex="1" parent="1">
          <mxGeometry x="660" y="390" width="100" height="50" as="geometry" />
        </mxCell>
        <mxCell id="5sg7_J7ixAqYXWb-klfq-23" style="edgeStyle=orthogonalEdgeStyle;rounded=0;orthogonalLoop=1;jettySize=auto;html=1;entryX=1;entryY=0.5;entryDx=0;entryDy=0;entryPerimeter=0;align=center;" edge="1" parent="1" source="5sg7_J7ixAqYXWb-klfq-15" target="5sg7_J7ixAqYXWb-klfq-21">
          <mxGeometry relative="1" as="geometry">
            <Array as="points">
              <mxPoint x="600" y="675" />
            </Array>
          </mxGeometry>
        </mxCell>
        <mxCell id="5sg7_J7ixAqYXWb-klfq-15" value="&lt;font style=&quot;font-size: 14px&quot;&gt;取消收藏&lt;/font&gt;" style="html=1;dashed=0;whitespace=wrap;align=center;" vertex="1" parent="1">
          <mxGeometry x="550" y="390" width="100" height="50" as="geometry" />
        </mxCell>
        <mxCell id="5sg7_J7ixAqYXWb-klfq-20" value="是" style="edgeStyle=orthogonalEdgeStyle;rounded=0;orthogonalLoop=1;jettySize=auto;html=1;align=center;" edge="1" parent="1" source="5sg7_J7ixAqYXWb-klfq-19" target="5sg7_J7ixAqYXWb-klfq-9">
          <mxGeometry relative="1" as="geometry" />
        </mxCell>
        <mxCell id="5sg7_J7ixAqYXWb-klfq-22" style="edgeStyle=orthogonalEdgeStyle;rounded=0;orthogonalLoop=1;jettySize=auto;html=1;align=center;" edge="1" parent="1" source="5sg7_J7ixAqYXWb-klfq-19">
          <mxGeometry relative="1" as="geometry">
            <mxPoint x="380" y="640" as="targetPoint" />
          </mxGeometry>
        </mxCell>
        <mxCell id="5sg7_J7ixAqYXWb-klfq-19" value="&lt;font style=&quot;font-size: 14px&quot;&gt;收藏成功&lt;/font&gt;" style="html=1;dashed=0;whitespace=wrap;align=center;" vertex="1" parent="1">
          <mxGeometry x="330" y="530" width="100" height="50" as="geometry" />
        </mxCell>
        <mxCell id="5sg7_J7ixAqYXWb-klfq-21" value="&lt;font style=&quot;font-size: 14px&quot;&gt;结束&lt;/font&gt;" style="html=1;dashed=0;whitespace=wrap;shape=mxgraph.dfd.start;align=center;" vertex="1" parent="1">
          <mxGeometry x="310" y="650" width="140" height="50" as="geometry" />
        </mxCell>
      </root>
    </mxGraphModel>
  </diagram>
</mxfile>
